<svg width="63" height="63" viewBox="0 0 63 63" fill="none" xmlns="http://www.w3.org/2000/svg">
<g filter="url(#filter0_i_695_58)">
<path d="M28.1137 1.58513C30.564 0.570188 33.3171 0.570187 35.7674 1.58513L50.5882 7.72413C53.0385 8.73907 54.9852 10.6858 56.0002 13.1361L62.1392 27.9569C63.1541 30.4072 63.1541 33.1603 62.1392 35.6106L56.0002 50.4315C54.9852 52.8818 53.0385 54.8285 50.5882 55.8434L35.7674 61.9824C33.3171 62.9974 30.564 62.9974 28.1137 61.9824L13.2928 55.8434C10.8425 54.8285 8.8958 52.8818 7.88087 50.4315L1.74187 35.6106C0.726927 33.1603 0.726925 30.4072 1.74186 27.9569L7.88086 13.1361C8.8958 10.6858 10.8425 8.73907 13.2928 7.72413L28.1137 1.58513Z" fill="url(#paint0_linear_695_58)"/>
</g>
<defs>
<filter id="filter0_i_695_58" x="0.980652" y="0.824219" width="61.9197" height="61.9189" filterUnits="userSpaceOnUse" color-interpolation-filters="sRGB">
<feFlood flood-opacity="0" result="BackgroundImageFix"/>
<feBlend mode="normal" in="SourceGraphic" in2="BackgroundImageFix" result="shape"/>
<feColorMatrix in="SourceAlpha" type="matrix" values="0 0 0 0 0 0 0 0 0 0 0 0 0 0 0 0 0 0 127 0" result="hardAlpha"/>
<feOffset/>
<feGaussianBlur stdDeviation="10"/>
<feComposite in2="hardAlpha" operator="arithmetic" k2="-1" k3="1"/>
<feColorMatrix type="matrix" values="0 0 0 0 1 0 0 0 0 1 0 0 0 0 1 0 0 0 0.43 0"/>
<feBlend mode="normal" in2="shape" result="effect1_innerShadow_695_58"/>
</filter>
<linearGradient id="paint0_linear_695_58" x1="0.156739" y1="31.7838" x2="63.7243" y2="31.7838" gradientUnits="userSpaceOnUse">
<stop stop-color="white"/>
<stop offset="1" stop-color="#D8D8D8"/>
</linearGradient>
</defs>
</svg>
