<svg width="18" height="18" viewBox="0 0 18 18" fill="none" xmlns="http://www.w3.org/2000/svg">
<g filter="url(#filter0_i_604_187)">
<path d="M8.16673 1.25589C8.56229 0.659709 9.43771 0.65971 9.83327 1.25589L12.2619 4.91631C12.3948 5.11658 12.5954 5.26229 12.8269 5.32678L17.0587 6.50543C17.7479 6.6974 18.0184 7.52998 17.5736 8.09041L14.8429 11.5313C14.6935 11.7196 14.6169 11.9554 14.6271 12.1955L14.8138 16.5844C14.8442 17.2992 14.136 17.8137 13.4655 17.5639L9.34916 16.0301C9.12395 15.9462 8.87605 15.9462 8.65084 16.0301L4.53447 17.5639C3.86403 17.8137 3.1558 17.2992 3.18621 16.5844L3.37293 12.1955C3.38314 11.9554 3.30654 11.7196 3.15713 11.5313L0.42636 8.09041C-0.0184045 7.52998 0.252117 6.6974 0.94135 6.50543L5.17312 5.32678C5.40464 5.26229 5.6052 5.11658 5.73807 4.91631L8.16673 1.25589Z" fill="url(#paint0_linear_604_187)"/>
</g>
<defs>
<filter id="filter0_i_604_187" x="0.208984" y="0.808594" width="17.582" height="16.8193" filterUnits="userSpaceOnUse" color-interpolation-filters="sRGB">
<feFlood flood-opacity="0" result="BackgroundImageFix"/>
<feBlend mode="normal" in="SourceGraphic" in2="BackgroundImageFix" result="shape"/>
<feColorMatrix in="SourceAlpha" type="matrix" values="0 0 0 0 0 0 0 0 0 0 0 0 0 0 0 0 0 0 127 0" result="hardAlpha"/>
<feOffset/>
<feGaussianBlur stdDeviation="10"/>
<feComposite in2="hardAlpha" operator="arithmetic" k2="-1" k3="1"/>
<feColorMatrix type="matrix" values="0 0 0 0 1 0 0 0 0 1 0 0 0 0 1 0 0 0 0.43 0"/>
<feBlend mode="normal" in2="shape" result="effect1_innerShadow_604_187"/>
</filter>
<linearGradient id="paint0_linear_604_187" x1="-1" y1="10" x2="19" y2="10" gradientUnits="userSpaceOnUse">
<stop stop-color="#FDE696"/>
<stop offset="1" stop-color="#EEB854"/>
</linearGradient>
</defs>
</svg>
